<svg width="76" height="101" viewBox="0 0 76 101" fill="none" xmlns="http://www.w3.org/2000/svg">
<g clip-path="url(#clip0_67_1748)">
<path d="M37.9805 33.5389L48.6798 37.0613V21.6372H38.9721L37.9805 33.5389Z" fill="#EFA4A7"/>
<path d="M47.3529 25.9053C53.241 25.9053 58.0143 21.126 58.0143 15.2305C58.0143 9.33494 53.241 4.55566 47.3529 4.55566C41.4647 4.55566 36.6914 9.33494 36.6914 15.2305C36.6914 21.126 41.4647 25.9053 47.3529 25.9053Z" fill="#EFA4A7"/>
<path d="M44.4286 14.1744C46.216 14.1175 47.3845 12.3152 48.0793 10.6646C48.774 9.01407 49.4877 7.1232 51.1425 6.44023C52.4942 5.88372 54.8817 9.64648 55.9554 8.64096C57.067 7.59752 55.9806 2.23481 54.7995 1.26724C53.6184 0.299678 52.0015 0.116275 50.4794 0.0467246C46.7655 -0.124022 43.0265 0.173203 39.3821 0.938401C37.1273 1.40638 34.8093 2.11465 33.1861 3.74623C31.127 5.81416 30.6028 8.9382 30.4512 11.8535C30.2996 14.8384 30.4702 17.9625 31.9229 20.5743C33.3755 23.186 36.4072 25.1148 39.3126 24.4445C39.6032 22.8635 39.3126 21.2383 39.1926 19.632C39.0789 18.0257 39.1926 16.2929 40.1779 15.0092C41.1632 13.7254 43.2475 13.2258 44.3907 14.3578" fill="#36344E"/>
<path d="M31.3102 17.874C30.2428 17.0898 28.9669 16.4385 27.6532 16.5966C26.2321 16.7673 25.0383 17.9373 24.672 19.3222C24.3057 20.7072 24.7162 22.2312 25.5941 23.3632C26.4721 24.4952 27.7732 25.2414 29.1564 25.6145C29.9522 25.8296 30.8301 25.9181 31.5881 25.5956C32.7123 25.115 33.3124 23.6794 32.8766 22.5348" fill="#36344E"/>
<path d="M34.1331 86.0845H62.1953L64.7406 112.221L53.5991 208.794H39.2744L45.003 153.017L21.7663 203.375L9.0332 194.452L27.1792 147.439C27.1792 147.439 20.6989 106.486 25.7896 96.285C30.8804 86.0845 34.1331 86.0845 34.1331 86.0845Z" fill="#36344E"/>
<path d="M20.1738 87.6782H64.7398L51.3687 29.9849H31.9532L20.1738 87.6782Z" fill="#3A68E5"/>
<path d="M75.8059 28.8523C76.5196 25.3426 75.2122 22.1363 72.9005 21.6936C70.5825 21.251 68.1319 23.7363 67.4182 27.2461C67.1151 28.6437 67.1593 30.0918 67.5572 31.4768L64.7402 46.3823L72.0226 47.5333L74.0248 32.7163C74.928 31.5843 75.5406 30.2626 75.8059 28.8523Z" fill="#EFA4A7"/>
<path d="M32.4272 29.9849H49.55L61.0957 53.0989L65.4474 35.7776L75.0162 36.7958C75.0162 36.7958 72.7551 70.6415 62.8579 69.4969C52.9606 68.3523 29.8881 37.8582 32.4272 29.9849Z" fill="#3A68E5"/>
<path d="M13.3025 117.901C12.5887 121.41 13.8962 124.617 16.2078 125.059C18.5258 125.502 20.9764 123.017 21.6901 119.507C21.9933 118.109 21.9491 116.661 21.5512 115.276L24.3681 100.371L17.0857 99.2197L15.0836 114.037C14.1804 115.169 13.5677 116.49 13.3025 117.901Z" fill="#EFA4A7"/>
<path d="M42.1866 29.9844C42.1866 29.9844 32.4535 29.5734 31.9483 29.9844C29.2955 32.1599 13.7139 110.514 13.7139 110.514H23.5795L42.1802 29.9844H42.1866Z" fill="#3A68E5"/>
</g>
<defs>
<clipPath id="clip0_67_1748">
<rect width="76" height="101" fill="white"/>
</clipPath>
</defs>
</svg>
